<svg width="512" height="512" viewBox="0 0 512 512" fill="none" xmlns="http://www.w3.org/2000/svg">
<g clip-path="url(#clip0_129_149)">
<path d="M256 128C239.123 128 222.625 133.005 208.592 142.381C194.559 151.758 183.621 165.085 177.163 180.678C170.704 196.27 169.014 213.428 172.307 229.981C175.599 246.534 183.727 261.739 195.661 273.673C207.595 285.607 222.8 293.734 239.353 297.027C255.906 300.32 273.063 298.63 288.656 292.171C304.249 285.712 317.576 274.775 326.952 260.742C336.329 246.709 341.334 230.211 341.334 213.333C341.334 190.702 332.343 168.997 316.34 152.994C300.337 136.99 278.632 128 256 128ZM256 256C247.562 256 239.313 253.498 232.296 248.809C225.28 244.121 219.811 237.457 216.582 229.661C213.352 221.865 212.507 213.286 214.154 205.009C215.8 196.733 219.863 189.13 225.83 183.163C231.798 177.196 239.4 173.133 247.677 171.486C255.953 169.84 264.532 170.685 272.328 173.914C280.125 177.144 286.788 182.613 291.476 189.629C296.165 196.646 298.667 204.895 298.667 213.333C298.667 224.649 294.172 235.502 286.17 243.503C278.169 251.505 267.316 256 256 256Z" fill="#3484FF"/>
<path d="M256 512C238.036 512.092 220.312 507.879 204.311 499.713C188.31 491.548 174.498 479.667 164.032 465.067C82.7305 352.918 41.4932 268.608 41.4932 214.464C41.4932 157.574 64.0929 103.013 104.321 62.7851C144.549 22.5573 199.109 -0.0424805 256 -0.0424805C312.891 -0.0424805 367.451 22.5573 407.679 62.7851C447.907 103.013 470.507 157.574 470.507 214.464C470.507 268.608 429.269 352.918 347.968 465.067C337.502 479.667 323.69 491.548 307.689 499.713C291.688 507.879 273.964 512.092 256 512ZM256 46.5282C211.465 46.579 168.768 64.293 137.277 95.7841C105.786 127.275 88.072 169.972 88.0212 214.507C88.0212 257.387 128.405 336.683 201.706 437.782C207.929 446.353 216.093 453.329 225.53 458.139C234.966 462.95 245.408 465.457 256 465.457C266.592 465.457 277.033 462.95 286.47 458.139C295.907 453.329 304.07 446.353 310.293 437.782C383.595 336.683 423.979 257.387 423.979 214.507C423.928 169.972 406.214 127.275 374.723 95.7841C343.231 64.293 300.535 46.579 256 46.5282Z" fill="#3484FF"/>
</g>
<defs>
<clipPath id="clip0_129_149">
<rect width="512" height="512" fill="white"/>
</clipPath>
</defs>
</svg>
