<svg width="190" height="54" viewBox="0 0 190 54" fill="none" xmlns="http://www.w3.org/2000/svg">
<g clip-path="url(#clip0_127_118)">
<path d="M82.1916 23.4277H78.3534L73.3629 17.595H70.2558V23.4277H67.0215V5.96191C69.7392 5.96191 72.457 5.96191 75.1668 5.96191C79.2116 5.96191 81.3333 8.72052 81.3333 11.738C81.3333 14.1649 80.2606 16.5433 77.0024 17.2148L82.1916 23.1688V23.4277ZM70.2717 9.05219V14.6341H75.1827C75.5602 14.6634 75.9397 14.613 76.2972 14.486C76.6548 14.359 76.9827 14.1582 77.2605 13.8962C77.5382 13.6342 77.7598 13.3166 77.9113 12.9633C78.0629 12.61 78.1411 12.2287 78.1411 11.8432C78.1411 11.4577 78.0629 11.0763 77.9113 10.723C77.7598 10.3698 77.5382 10.0521 77.2605 9.79012C76.9827 9.52809 76.6548 9.32729 76.2972 9.20031C75.9397 9.07333 75.5602 9.02291 75.1827 9.05219H70.2717Z" fill="white"/>
<path d="M85.8312 18.3717C86.0299 19.8925 87.3252 20.9846 89.431 20.9846C90.6073 21.0031 91.7523 20.5992 92.6653 19.844L94.5725 21.7613C93.1603 23.0822 91.3006 23.7954 89.3833 23.7513C85.2273 23.7513 82.7559 21.1384 82.7559 17.1987C82.7559 13.4612 85.2511 10.7754 89.1608 10.7754C93.1977 10.7754 95.7247 13.3156 95.2559 18.3717H85.8312ZM92.3951 15.8558C92.1964 14.2378 90.9727 13.4288 89.2641 13.4288C88.5117 13.37 87.7628 13.5803 87.1463 14.0233C86.5298 14.4663 86.0844 15.1143 85.8868 15.8558H92.3951Z" fill="white"/>
<path d="M109.791 11.1236L104.649 23.4767H101.423L96.2578 11.1236H99.508L101.177 15.1685L103.036 20.3459L104.872 15.217L106.533 11.1074L109.791 11.1236Z" fill="white"/>
<path d="M113.772 18.3717C113.97 19.8925 115.266 20.9847 117.372 20.9847C118.545 21.0033 119.688 20.5993 120.598 19.844L122.505 21.7613C121.096 23.0824 119.239 23.7958 117.324 23.7513C113.16 23.7513 110.688 21.1384 110.688 17.1987C110.688 13.4612 113.184 10.7754 117.101 10.7754C121.019 10.7754 123.657 13.3156 123.196 18.3717H113.772ZM120.328 15.8558C120.137 14.2378 118.913 13.4288 117.197 13.4288C116.445 13.3732 115.697 13.5846 115.082 14.0272C114.466 14.4697 114.02 15.1159 113.819 15.8558H120.328Z" fill="white"/>
<path d="M128.259 11.1478L128.473 12.5635C128.82 11.9757 129.324 11.5002 129.926 11.1923C130.528 10.8844 131.204 10.7568 131.874 10.8242C133.018 10.8032 134.128 11.2221 134.981 11.9972L133.638 14.6345C133.35 14.3614 133.011 14.1493 132.641 14.0104C132.272 13.8716 131.879 13.8087 131.485 13.8255C131.077 13.7901 130.665 13.8468 130.281 13.9915C129.897 14.1362 129.548 14.3654 129.261 14.6628C128.973 14.9601 128.753 15.3184 128.617 15.712C128.481 16.1056 128.432 16.5249 128.473 16.9401V23.4119H125.493V11.1478H128.259Z" fill="white"/>
<path d="M138.653 18.3717C138.851 19.8925 140.147 20.9846 142.252 20.9846C143.426 21.0033 144.569 20.5993 145.479 19.844L147.386 21.7613C145.976 23.081 144.119 23.7941 142.205 23.7513C138.041 23.7513 135.569 21.1384 135.569 17.1987C135.569 13.4612 138.065 10.7754 141.982 10.7754C145.9 10.7754 148.538 13.3156 148.077 18.3717H138.653ZM145.209 15.8558C145.018 14.2378 143.794 13.4288 142.078 13.4288C141.326 13.3732 140.578 13.5846 139.962 14.0272C139.347 14.4697 138.901 15.1159 138.7 15.8558H145.209Z" fill="white"/>
<path d="M159.251 23.4278V17.0045C159.251 15.1358 158.249 13.712 156.342 13.712C155.916 13.7242 155.496 13.8237 155.108 14.0046C154.72 14.1855 154.372 14.4441 154.084 14.7649C153.796 15.0858 153.575 15.4623 153.433 15.8721C153.291 16.2819 153.232 16.7166 153.259 17.1502V23.4278H150.295V11.1233H152.965L153.164 12.7898C153.664 12.2182 154.275 11.759 154.959 11.4414C155.644 11.1239 156.385 10.9549 157.137 10.9453C159.982 10.9453 162.255 13.1134 162.255 16.9722V23.444L159.251 23.4278Z" fill="white"/>
<path d="M175.151 21.8584C174.552 22.4941 173.829 22.9952 173.029 23.3295C172.228 23.6639 171.368 23.8241 170.503 23.8C167.006 23.8 164.098 21.6562 164.098 17.3282C164.098 13.0001 167.006 10.8564 170.503 10.8564C171.314 10.8264 172.122 10.9733 172.873 11.2872C173.624 11.6011 174.301 12.0748 174.857 12.6765L172.974 14.6909C172.31 14.076 171.448 13.7306 170.55 13.7201C170.082 13.7083 169.617 13.7951 169.183 13.9753C168.75 14.1554 168.358 14.4249 168.032 14.7669C167.705 15.1088 167.452 15.5157 167.288 15.9621C167.124 16.4085 167.052 16.8846 167.078 17.3605C167.043 17.8318 167.108 18.3051 167.266 18.7491C167.425 19.1932 167.675 19.5979 167.998 19.9366C168.322 20.2753 168.713 20.5403 169.144 20.714C169.576 20.8877 170.039 20.9662 170.503 20.9443C170.988 20.9619 171.472 20.8808 171.927 20.7058C172.381 20.5308 172.796 20.2654 173.149 19.925L175.151 21.8584Z" fill="white"/>
<path d="M179.506 18.3717C179.705 19.8925 181 20.9846 183.106 20.9846C184.28 21.0033 185.422 20.5993 186.332 19.844L188.239 21.7613C186.827 23.0822 184.968 23.7954 183.05 23.7513C178.894 23.7513 176.423 21.1384 176.423 17.1987C176.423 13.4612 178.918 10.7754 182.836 10.7754C186.873 10.7754 189.392 13.3156 188.923 18.3717H179.506ZM186.062 15.8558C185.871 14.2378 184.648 13.4288 182.931 13.4288C182.179 13.3732 181.432 13.5846 180.816 14.0272C180.2 14.4697 179.754 15.1159 179.554 15.8558H186.062Z" fill="white"/>
<path d="M77.5669 32.2616C77.0902 31.6329 76.4733 31.1289 75.7671 30.7912C75.0609 30.4536 74.2859 30.2921 73.5062 30.3201C71.1222 30.3201 69.962 31.3394 69.962 32.6338C69.962 34.1546 71.7182 34.5753 73.7764 34.8261C77.3524 35.271 80.6741 36.2175 80.6741 40.3838C80.6741 44.2668 77.2968 45.9333 73.4824 45.9333C69.9859 45.9333 67.292 44.8412 66.0205 41.6538L68.7144 40.2301C69.5091 42.1473 71.456 42.9968 73.5301 42.9968C75.6041 42.9968 77.5034 42.2768 77.5034 40.3838C77.5034 38.7658 75.8187 38.062 73.5301 37.8112C70.0335 37.3905 66.7993 36.444 66.7993 32.5367C66.7993 28.9448 70.2799 27.4806 73.4347 27.4482C76.0968 27.4482 78.8622 28.2572 80.1655 30.9107L77.5669 32.2616Z" fill="white"/>
<path d="M95.4307 39.3652C95.4291 40.6271 95.0605 41.8603 94.3715 42.9093C93.6825 43.9583 92.7038 44.7762 91.5588 45.2599C90.4139 45.7435 89.1539 45.8713 87.9378 45.627C86.7216 45.3828 85.6037 44.7774 84.7249 43.8874C83.8462 42.9973 83.246 41.8623 82.9999 40.6255C82.7539 39.3887 82.873 38.1054 83.3423 36.9374C83.8116 35.7694 84.6101 34.769 85.637 34.0623C86.664 33.3556 87.8735 32.9742 89.1131 32.9662C89.9483 32.9347 90.781 33.0784 91.5594 33.3884C92.3378 33.6984 93.0452 34.1681 93.6377 34.7682C94.2302 35.3684 94.6951 36.0861 95.0036 36.877C95.312 37.6678 95.4574 38.5147 95.4307 39.3652ZM85.8947 39.3652C85.8947 41.2339 86.9914 42.9813 89.1687 42.9813C91.3461 42.9813 92.4507 41.2339 92.4507 39.3652C92.4731 38.9064 92.4056 38.4477 92.2521 38.0158C92.0987 37.5839 91.8624 37.1873 91.557 36.8493C91.2515 36.5113 90.8831 36.2385 90.473 36.0468C90.063 35.8551 89.6196 35.7484 89.1687 35.7329C86.9834 35.7248 85.8629 37.5126 85.8629 39.3652H85.8947Z" fill="white"/>
<path d="M100.438 28.0391V45.4563H97.4814V28.0391H100.438Z" fill="white"/>
<path d="M106.119 33.2079V39.6311C106.119 41.4999 107.12 42.9237 109.027 42.9237C109.454 42.9115 109.874 42.812 110.262 42.6311C110.65 42.4502 110.998 42.1916 111.286 41.8708C111.574 41.5499 111.795 41.1734 111.937 40.7636C112.078 40.3538 112.138 39.9191 112.111 39.4855V33.2079H115.067V45.5124H112.397L112.198 43.8459C111.687 44.4331 111.058 44.9011 110.353 45.2181C109.648 45.535 108.884 45.6933 108.114 45.6823C105.229 45.6823 103.123 43.4657 103.123 39.6554V33.1836L106.119 33.2079Z" fill="white"/>
<path d="M121.917 29.7461V33.2328H125.247V35.8458H121.893V41.1527C121.86 41.3787 121.878 41.6092 121.944 41.8274C122.011 42.0456 122.125 42.2459 122.277 42.4135C122.429 42.5811 122.617 42.7118 122.825 42.796C123.034 42.8802 123.259 42.9157 123.482 42.9C123.986 42.885 124.481 42.7551 124.929 42.5198L125.763 45.1166C124.979 45.4476 124.14 45.6233 123.292 45.6344C120.669 45.7395 118.961 44.2187 118.961 41.1527V35.8458H116.656V33.2328H118.913V30.0697L121.917 29.7461Z" fill="white"/>
<path d="M130.73 29.7461C130.73 30.2224 130.545 30.6792 130.214 31.016C129.883 31.3528 129.434 31.542 128.966 31.542C128.498 31.542 128.05 31.3528 127.719 31.016C127.388 30.6792 127.202 30.2224 127.202 29.7461C127.202 29.2698 127.388 28.813 127.719 28.4762C128.05 28.1394 128.498 27.9502 128.966 27.9502C129.434 27.9502 129.883 28.1394 130.214 28.4762C130.545 28.813 130.73 29.2698 130.73 29.7461ZM127.472 33.16V45.4888H130.46V33.16H127.472Z" fill="white"/>
<path d="M145.407 39.3648C145.406 40.625 145.038 41.8566 144.351 42.9047C143.663 43.9528 142.687 44.7706 141.544 45.2554C140.402 45.7401 139.144 45.8702 137.929 45.6292C136.714 45.3882 135.596 44.7868 134.715 43.9008C133.835 43.0148 133.232 41.8836 132.981 40.6494C132.731 39.4153 132.844 38.1334 133.308 36.9647C133.771 35.7961 134.563 34.793 135.585 34.0814C136.607 33.3699 137.812 32.9818 139.05 32.9658C139.888 32.9286 140.725 33.0681 141.509 33.3756C142.292 33.683 143.004 34.1518 143.601 34.7526C144.198 35.3533 144.666 36.0731 144.977 36.8667C145.288 37.6604 145.434 38.5109 145.407 39.3648ZM135.871 39.3648C135.871 41.2336 136.968 42.981 139.145 42.981C141.323 42.981 142.427 41.2336 142.427 39.3648C142.45 38.9061 142.382 38.4474 142.229 38.0155C142.075 37.5836 141.839 37.187 141.534 36.849C141.228 36.5109 140.86 36.2381 140.45 36.0465C140.04 35.8548 139.596 35.7481 139.145 35.7325C136.96 35.7245 135.839 37.5123 135.839 39.3648H135.871Z" fill="white"/>
<path d="M156.342 45.4884V39.057C156.342 37.1883 155.332 35.7726 153.425 35.7726C152.999 35.7847 152.579 35.8842 152.191 36.0651C151.803 36.246 151.454 36.5046 151.167 36.8254C150.879 37.1463 150.658 37.5229 150.516 37.9327C150.374 38.3424 150.315 38.7771 150.342 39.2107V45.4884H147.386V33.1838H150.032L150.231 34.8503C150.732 34.2803 151.344 33.8221 152.028 33.5047C152.711 33.1872 153.452 33.0174 154.204 33.0059C157.041 33.0059 159.314 35.1739 159.314 39.0327V45.5045L156.342 45.4884Z" fill="white"/>
<path d="M169.772 36.4684C169.37 36.0929 168.899 35.8029 168.386 35.6154C167.873 35.4278 167.328 35.3465 166.784 35.3763C165.369 35.3763 164.583 35.8212 164.583 36.5978C164.583 37.3744 165.29 37.8436 166.832 37.9407C169.112 38.0863 171.997 38.6122 171.997 41.8723C171.997 44.0404 170.257 45.9172 166.808 45.9172C165.78 45.9869 164.749 45.8267 163.788 45.448C162.827 45.0693 161.959 44.4812 161.245 43.7249L162.715 41.5568C163.862 42.6057 165.331 43.215 166.871 43.2799C168 43.2799 169.049 42.7056 169.049 41.8076C169.049 40.9096 168.365 40.6103 166.665 40.5132C164.384 40.3353 161.674 39.4939 161.674 36.703C161.674 33.912 164.535 32.8927 166.72 32.8927C167.569 32.8347 168.421 32.9478 169.227 33.2254C170.033 33.5031 170.777 33.9398 171.417 34.5107L169.772 36.4684Z" fill="white"/>
<path fill-rule="evenodd" clip-rule="evenodd" d="M14.495 22.0447C14.3202 21.8667 14.2169 21.7454 14.0977 21.6321C10.9191 18.3962 7.74042 15.1603 4.56177 11.9244C4.30748 11.6737 4.31543 11.5523 4.56177 11.3096C5.23724 10.6544 5.89681 9.97481 6.54843 9.29527C6.72325 9.1092 6.81861 9.05258 7.03317 9.29527C10.5138 12.8548 13.9997 16.4089 17.4909 19.9576C17.9613 20.4302 18.2817 21.0355 18.4108 21.6954C18.5399 22.3553 18.4717 23.0394 18.2151 23.6594C17.9585 24.2795 17.5252 24.807 16.9711 25.1738C16.4171 25.5407 15.7677 25.73 15.1069 25.7175C12.4369 25.7175 9.7668 25.7175 7.09674 25.7175C6.88218 25.7175 6.80272 25.6608 6.81066 25.4343C6.81066 24.4069 6.81066 23.3876 6.81066 22.3602C6.81066 22.0366 6.97755 22.069 7.17621 22.069H14.495V22.0447Z" fill="white"/>
<path fill-rule="evenodd" clip-rule="evenodd" d="M38.6279 22.0451H39.4226C43.833 22.0451 48.2354 22.0451 52.6378 22.0451C53.0272 22.0451 53.0908 22.1584 53.0828 22.5143C53.0828 23.4689 53.0828 24.4235 53.0828 25.3781C53.0828 25.6451 53.0034 25.7017 52.7491 25.7017C47.854 25.7017 42.9588 25.7017 38.0637 25.7017C37.3813 25.7446 36.7035 25.5623 36.1309 25.1819C35.5583 24.8016 35.1214 24.2434 34.8851 23.5903C34.609 22.9498 34.5442 22.2356 34.7004 21.5545C34.8565 20.8734 35.2252 20.2622 35.7513 19.8123C36.0056 19.5696 36.2519 19.3108 36.4982 19.06C38.0876 17.442 39.6769 15.8241 41.2662 14.2061C41.4967 13.9715 41.6079 13.9796 41.8225 14.2061C42.4503 14.8695 43.086 15.5248 43.7456 16.1639C44.0078 16.4146 44.0475 16.5522 43.7456 16.8434C42.0529 18.5423 40.3682 20.2654 38.6279 22.0451Z" fill="white"/>
<path fill-rule="evenodd" clip-rule="evenodd" d="M38.6286 32.2706C42.0218 35.7169 45.3276 39.0822 48.6334 42.4314C48.8082 42.6093 48.8718 42.7145 48.6334 42.9329C47.9261 43.6206 47.2427 44.3244 46.5593 45.0444C46.3845 45.2223 46.2971 45.2385 46.1064 45.0444C42.6178 41.4768 39.1054 37.9254 35.6168 34.3497C35.1414 33.8882 34.8181 33.288 34.6915 32.6317C34.5648 31.9755 34.641 31.2954 34.9096 30.6851C35.1483 30.0643 35.5696 29.5337 36.1158 29.1659C36.662 28.7981 37.3065 28.611 37.9611 28.6303H45.9077C46.1858 28.6303 46.2891 28.6788 46.2891 28.9862C46.2891 29.957 46.2891 30.9277 46.2891 31.8904C46.2891 32.2302 46.1858 32.2868 45.8839 32.2868C43.6191 32.2868 41.3543 32.2868 39.0895 32.2868L38.6286 32.2706Z" fill="white"/>
<path fill-rule="evenodd" clip-rule="evenodd" d="M31.6275 14.7471C31.6978 14.6275 31.7775 14.5139 31.8659 14.4073C35.0445 11.1714 38.2444 7.90859 41.4654 4.61875C41.7117 4.36797 41.8309 4.36797 42.0693 4.61875C42.721 5.32256 43.3964 6.00209 44.0798 6.67354C44.2706 6.85961 44.2547 6.9486 44.0798 7.13467C40.5886 10.6726 37.108 14.2132 33.638 17.7565C33.2246 18.1926 32.7035 18.5074 32.1294 18.6676C31.5552 18.8278 30.9493 18.8276 30.3752 18.6671C29.8012 18.5065 29.2802 18.1914 28.8672 17.755C28.4541 17.3186 28.1641 16.777 28.0277 16.1871C27.9681 15.9083 27.9441 15.6228 27.9562 15.3377C27.9562 12.6761 27.9562 10.0227 27.9562 7.36118C27.9562 7.03759 28.0118 6.91623 28.3614 6.92432C29.2832 6.95668 30.205 6.95668 31.1269 6.92432C31.4845 6.92432 31.5242 7.04567 31.5242 7.35308C31.5242 9.78001 31.5242 12.2069 31.5242 14.6339L31.6275 14.7471Z" fill="white"/>
<path fill-rule="evenodd" clip-rule="evenodd" d="M21.6549 39.551C18.2935 42.9648 15.0116 46.3059 11.7375 49.647C11.4912 49.9058 11.3641 49.9544 11.1018 49.647C10.4581 48.9351 9.77473 48.2636 9.08337 47.5841C8.92444 47.4304 8.9006 47.3414 9.08337 47.1634C12.5878 43.612 16.0764 40.0363 19.5888 36.4849C20.0378 35.9972 20.6242 35.663 21.2674 35.5283C21.9106 35.3936 22.579 35.465 23.1807 35.7326C23.8135 35.9758 24.3556 36.4149 24.7305 36.9881C25.1054 37.5614 25.2943 38.2398 25.2706 38.9281C25.2706 41.6058 25.2706 44.2835 25.2706 46.9612C25.2706 47.2848 25.1912 47.3657 24.8733 47.3576C23.9356 47.3576 22.9979 47.3576 22.0681 47.3576C21.7503 47.3576 21.6708 47.2848 21.6708 46.9612C21.6708 44.6151 21.6708 42.2691 21.6708 39.915L21.6549 39.551Z" fill="white"/>
<path fill-rule="evenodd" clip-rule="evenodd" d="M16.2429 9.18213L21.6546 14.6993V14.214C21.6546 9.61898 21.6546 5.03479 21.6546 0.461384C21.6546 0.137794 21.7102 0.0245381 22.0519 0.0326278C22.9896 0.0326278 23.9273 0.0326278 24.865 0.0326278C25.1352 0.0326278 25.2464 0.0730786 25.2464 0.388579C25.2464 5.41231 25.2464 10.4441 25.2464 15.4598C25.2725 16.1298 25.0898 16.7911 24.7244 17.349C24.359 17.907 23.8297 18.333 23.2121 18.5662C22.6302 18.8438 21.9773 18.9284 21.3457 18.8079C20.714 18.6874 20.1355 18.368 19.6918 17.8948C17.7448 15.9694 15.8456 13.9955 13.9225 12.0459C13.8192 11.9326 13.6921 11.8518 13.8669 11.6738C14.6377 10.8486 15.4165 10.0316 16.2429 9.18213Z" fill="white"/>
<path fill-rule="evenodd" clip-rule="evenodd" d="M14.3987 32.27H13.0637C8.85201 32.27 4.6403 32.27 0.436537 32.27C0.0868858 32.27 -0.00847297 32.181 -0.000526349 31.825C-0.000526349 30.8623 -0.000526349 29.8916 -0.000526349 28.9289C-0.000526349 28.6943 -0.000525879 28.6134 0.285552 28.6134C5.30782 28.6134 10.3221 28.6134 15.3444 28.6134C15.9736 28.6078 16.5886 28.8041 17.1021 29.1744C17.6156 29.5446 18.0016 30.0701 18.2052 30.6763C18.4765 31.2631 18.561 31.9215 18.447 32.5596C18.3331 33.1977 18.0263 33.7837 17.5694 34.2358C15.6702 36.2259 13.7153 38.1674 11.7923 40.1332C11.6572 40.2788 11.5698 40.3193 11.4029 40.1332C10.6956 39.397 9.99632 38.669 9.26523 37.9571C9.05067 37.7548 9.13014 37.6658 9.26523 37.504C10.934 35.8214 12.5869 34.1225 14.2478 32.4398C14.3009 32.3945 14.3597 32.3564 14.4226 32.3266C14.4385 32.3347 14.4146 32.3023 14.3987 32.27Z" fill="white"/>
<path fill-rule="evenodd" clip-rule="evenodd" d="M31.5005 39.6239C31.4668 39.7566 31.4668 39.8958 31.5005 40.0284C31.5005 44.6396 31.5005 49.2507 31.5005 53.87C31.5005 54.234 31.4131 54.3068 31.0714 54.2987C30.1337 54.2987 29.196 54.2987 28.2583 54.2987C27.996 54.2987 27.9325 54.234 27.9325 53.9671C27.9325 48.911 27.9325 43.8629 27.9325 38.8069C27.9102 38.1456 28.0954 37.4943 28.4612 36.9474C28.8269 36.4005 29.3543 35.9864 29.9668 35.7651C30.5662 35.488 31.2362 35.4107 31.8813 35.5443C32.5263 35.678 33.1134 36.0158 33.5587 36.5094C34.8381 37.7795 36.0936 39.0819 37.3572 40.3682C37.977 40.9992 38.5968 41.6464 39.2326 42.2693C39.3994 42.4311 39.4471 42.5281 39.2326 42.7223C38.5174 43.4261 37.8101 44.138 37.1267 44.8661C36.936 45.0683 36.8406 45.0279 36.6737 44.8661C35.0314 43.1726 33.3785 41.4927 31.7151 39.8262C31.6674 39.7372 31.6276 39.6239 31.5005 39.6239Z" fill="white"/>
</g>
<defs>
<clipPath id="clip0_127_118">
<rect width="190" height="54" fill="white"/>
</clipPath>
</defs>
</svg>
